<mxfile host="Electron" agent="Mozilla/5.0 (Macintosh; Intel Mac OS X 10_15_7) AppleWebKit/537.36 (KHTML, like Gecko) draw.io/24.7.8 Chrome/128.0.6613.36 Electron/32.0.1 Safari/537.36" version="24.7.8">
  <diagram name="Pagina-1" id="8XA0GF0U4r00a45ndteG">
    <mxGraphModel dx="775" dy="462" grid="1" gridSize="10" guides="1" tooltips="1" connect="1" arrows="1" fold="1" page="1" pageScale="1" pageWidth="1169" pageHeight="827" math="0" shadow="0">
      <root>
        <mxCell id="0" />
        <mxCell id="1" parent="0" />
        <mxCell id="Qrv3tHsd8QDWrn0WAsmq-15" value="" style="shape=arrow;endArrow=classic;html=1;rounded=0;fillColor=#000000;fontFamily=Fira Mono;textShadow=1;" edge="1" parent="1" source="Qrv3tHsd8QDWrn0WAsmq-7">
          <mxGeometry width="50" height="50" relative="1" as="geometry">
            <mxPoint x="510" y="490" as="sourcePoint" />
            <mxPoint x="1095.8823529411766" y="420" as="targetPoint" />
          </mxGeometry>
        </mxCell>
        <mxCell id="Qrv3tHsd8QDWrn0WAsmq-14" value="" style="shape=arrow;endArrow=classic;html=1;rounded=0;fillColor=#000000;fontFamily=Fira Mono;textShadow=1;" edge="1" parent="1" target="Qrv3tHsd8QDWrn0WAsmq-7">
          <mxGeometry width="50" height="50" relative="1" as="geometry">
            <mxPoint x="77.6470588235294" y="420" as="sourcePoint" />
            <mxPoint x="530" y="440" as="targetPoint" />
          </mxGeometry>
        </mxCell>
        <mxCell id="Qrv3tHsd8QDWrn0WAsmq-1" value="" style="ellipse;whiteSpace=wrap;html=1;aspect=fixed;fillColor=#f77f00;fontFamily=Fira Mono;textShadow=1;" vertex="1" parent="1">
          <mxGeometry x="120" y="400" width="40" height="40" as="geometry" />
        </mxCell>
        <mxCell id="Qrv3tHsd8QDWrn0WAsmq-2" value="" style="ellipse;whiteSpace=wrap;html=1;aspect=fixed;fillColor=#d62828;fontFamily=Fira Mono;textShadow=1;" vertex="1" parent="1">
          <mxGeometry x="200" y="400" width="40" height="40" as="geometry" />
        </mxCell>
        <mxCell id="Qrv3tHsd8QDWrn0WAsmq-4" value="" style="rounded=1;whiteSpace=wrap;html=1;fillColor=#d62828;fontFamily=Fira Mono;textShadow=1;" vertex="1" parent="1">
          <mxGeometry x="320" y="400" width="40" height="40" as="geometry" />
        </mxCell>
        <mxCell id="Qrv3tHsd8QDWrn0WAsmq-5" value="" style="rounded=1;whiteSpace=wrap;html=1;fillColor=#f77f00;fontFamily=Fira Mono;textShadow=1;" vertex="1" parent="1">
          <mxGeometry x="400" y="400" width="40" height="40" as="geometry" />
        </mxCell>
        <mxCell id="Qrv3tHsd8QDWrn0WAsmq-6" value="" style="rhombus;whiteSpace=wrap;html=1;fillColor=#d62828;fontFamily=Fira Mono;textShadow=1;" vertex="1" parent="1">
          <mxGeometry x="520" y="400" width="40" height="40" as="geometry" />
        </mxCell>
        <mxCell id="Qrv3tHsd8QDWrn0WAsmq-7" value="" style="shape=cylinder3;whiteSpace=wrap;html=1;boundedLbl=1;backgroundOutline=1;size=15;rotation=90;fillColor=#eae2b7;fontFamily=Fira Mono;textShadow=1;" vertex="1" parent="1">
          <mxGeometry x="640" y="340" width="80" height="160" as="geometry" />
        </mxCell>
        <mxCell id="Qrv3tHsd8QDWrn0WAsmq-16" value="" style="rounded=1;whiteSpace=wrap;html=1;fillColor=#fcbf49;fontFamily=Fira Mono;textShadow=1;" vertex="1" parent="1">
          <mxGeometry x="611.25" y="395" width="110" height="50" as="geometry" />
        </mxCell>
        <mxCell id="Qrv3tHsd8QDWrn0WAsmq-17" value="" style="ellipse;whiteSpace=wrap;html=1;aspect=fixed;fillColor=#000000;fontFamily=Fira Mono;textShadow=1;" vertex="1" parent="1">
          <mxGeometry x="613.75" y="412.5" width="15" height="15" as="geometry" />
        </mxCell>
        <mxCell id="Qrv3tHsd8QDWrn0WAsmq-18" value="" style="rounded=1;whiteSpace=wrap;html=1;fillColor=#000000;fontFamily=Fira Mono;textShadow=1;" vertex="1" parent="1">
          <mxGeometry x="633.75" y="412.5" width="15" height="15" as="geometry" />
        </mxCell>
        <mxCell id="Qrv3tHsd8QDWrn0WAsmq-19" value="" style="rhombus;whiteSpace=wrap;html=1;fillColor=#000000;fontFamily=Fira Mono;textShadow=1;" vertex="1" parent="1">
          <mxGeometry x="653.75" y="412.5" width="15" height="15" as="geometry" />
        </mxCell>
        <mxCell id="Qrv3tHsd8QDWrn0WAsmq-20" value="" style="rhombus;whiteSpace=wrap;html=1;fillColor=#000000;fontFamily=Fira Mono;textShadow=1;" vertex="1" parent="1">
          <mxGeometry x="695" y="412.5" width="15" height="15" as="geometry" />
        </mxCell>
        <mxCell id="Qrv3tHsd8QDWrn0WAsmq-21" value="debounce" style="text;html=1;align=center;verticalAlign=middle;whiteSpace=wrap;rounded=0;fontFamily=Fira Mono;textShadow=1;" vertex="1" parent="1">
          <mxGeometry x="622.5" y="385" width="87.5" height="10" as="geometry" />
        </mxCell>
        <mxCell id="Qrv3tHsd8QDWrn0WAsmq-22" value="" style="shape=curlyBracket;whiteSpace=wrap;html=1;rounded=1;labelPosition=left;verticalLabelPosition=middle;align=right;verticalAlign=middle;rotation=-90;fontFamily=Fira Mono;textShadow=1;" vertex="1" parent="1">
          <mxGeometry x="270" y="414" width="20" height="72.5" as="geometry" />
        </mxCell>
        <mxCell id="Qrv3tHsd8QDWrn0WAsmq-23" value="" style="shape=curlyBracket;whiteSpace=wrap;html=1;rounded=1;labelPosition=left;verticalLabelPosition=middle;align=right;verticalAlign=middle;rotation=-90;fontFamily=Fira Mono;textShadow=1;" vertex="1" parent="1">
          <mxGeometry x="470" y="414" width="20" height="72.5" as="geometry" />
        </mxCell>
        <mxCell id="Qrv3tHsd8QDWrn0WAsmq-24" value="t" style="text;html=1;align=center;verticalAlign=middle;whiteSpace=wrap;rounded=0;fontFamily=Fira Mono;textShadow=1;" vertex="1" parent="1">
          <mxGeometry x="240" y="460" width="80" height="20" as="geometry" />
        </mxCell>
        <mxCell id="Qrv3tHsd8QDWrn0WAsmq-25" value="t" style="text;html=1;align=center;verticalAlign=middle;whiteSpace=wrap;rounded=0;fontFamily=Fira Mono;textShadow=1;" vertex="1" parent="1">
          <mxGeometry x="440" y="460" width="80" height="20" as="geometry" />
        </mxCell>
        <mxCell id="Qrv3tHsd8QDWrn0WAsmq-26" value="" style="shape=curlyBracket;whiteSpace=wrap;html=1;rounded=1;labelPosition=left;verticalLabelPosition=middle;align=right;verticalAlign=middle;rotation=-90;fontFamily=Fira Mono;textShadow=1;" vertex="1" parent="1">
          <mxGeometry x="370" y="430.25" width="20" height="40" as="geometry" />
        </mxCell>
        <mxCell id="Qrv3tHsd8QDWrn0WAsmq-27" value="t&lt;sub&gt;1&lt;/sub&gt;" style="text;html=1;align=center;verticalAlign=middle;whiteSpace=wrap;rounded=0;fontFamily=Fira Mono;textShadow=1;" vertex="1" parent="1">
          <mxGeometry x="360" y="460" width="40" height="20" as="geometry" />
        </mxCell>
        <mxCell id="Qrv3tHsd8QDWrn0WAsmq-29" value="" style="shape=curlyBracket;whiteSpace=wrap;html=1;rounded=1;labelPosition=left;verticalLabelPosition=middle;align=right;verticalAlign=middle;rotation=-90;fontFamily=Fira Mono;textShadow=1;" vertex="1" parent="1">
          <mxGeometry x="170" y="430.25" width="20" height="40" as="geometry" />
        </mxCell>
        <mxCell id="Qrv3tHsd8QDWrn0WAsmq-30" value="t&lt;sub&gt;1&lt;/sub&gt;" style="text;html=1;align=center;verticalAlign=middle;whiteSpace=wrap;rounded=0;fontFamily=Fira Mono;textShadow=1;" vertex="1" parent="1">
          <mxGeometry x="160" y="460" width="40" height="20" as="geometry" />
        </mxCell>
        <mxCell id="Qrv3tHsd8QDWrn0WAsmq-31" value="" style="shape=curlyBracket;whiteSpace=wrap;html=1;rounded=1;labelPosition=left;verticalLabelPosition=middle;align=right;verticalAlign=middle;rotation=-90;fontFamily=Fira Mono;textShadow=1;" vertex="1" parent="1">
          <mxGeometry x="870" y="414" width="20" height="72.5" as="geometry" />
        </mxCell>
        <mxCell id="Qrv3tHsd8QDWrn0WAsmq-32" value="t" style="text;html=1;align=center;verticalAlign=middle;whiteSpace=wrap;rounded=0;fontFamily=Fira Mono;textShadow=1;" vertex="1" parent="1">
          <mxGeometry x="840" y="460" width="80" height="20" as="geometry" />
        </mxCell>
        <mxCell id="Qrv3tHsd8QDWrn0WAsmq-33" value="" style="shape=curlyBracket;whiteSpace=wrap;html=1;rounded=1;labelPosition=left;verticalLabelPosition=middle;align=right;verticalAlign=middle;rotation=-90;fontFamily=Fira Mono;textShadow=1;" vertex="1" parent="1">
          <mxGeometry x="950" y="414" width="20" height="72.5" as="geometry" />
        </mxCell>
        <mxCell id="Qrv3tHsd8QDWrn0WAsmq-34" value="t" style="text;html=1;align=center;verticalAlign=middle;whiteSpace=wrap;rounded=0;fontFamily=Fira Mono;textShadow=1;" vertex="1" parent="1">
          <mxGeometry x="920" y="460" width="80" height="20" as="geometry" />
        </mxCell>
        <mxCell id="Qrv3tHsd8QDWrn0WAsmq-35" value="" style="ellipse;whiteSpace=wrap;html=1;aspect=fixed;fillColor=#d62828;fontFamily=Fira Mono;textShadow=1;" vertex="1" parent="1">
          <mxGeometry x="800" y="400" width="40" height="40" as="geometry" />
        </mxCell>
        <mxCell id="Qrv3tHsd8QDWrn0WAsmq-36" value="" style="rounded=1;whiteSpace=wrap;html=1;fillColor=#f77f00;fontFamily=Fira Mono;textShadow=1;" vertex="1" parent="1">
          <mxGeometry x="1000" y="400" width="40" height="40" as="geometry" />
        </mxCell>
        <mxCell id="Qrv3tHsd8QDWrn0WAsmq-37" value="" style="endArrow=block;html=1;rounded=0;endFill=1;strokeWidth=1.5;sourcePerimeterSpacing=0;jumpSize=4;" edge="1" parent="1">
          <mxGeometry width="50" height="50" relative="1" as="geometry">
            <mxPoint x="675" y="419.92" as="sourcePoint" />
            <mxPoint x="690" y="420" as="targetPoint" />
            <Array as="points">
              <mxPoint x="690" y="420" />
            </Array>
          </mxGeometry>
        </mxCell>
        <mxCell id="Qrv3tHsd8QDWrn0WAsmq-38" value="" style="endArrow=block;html=1;rounded=0;endFill=1;" edge="1" parent="1" target="Qrv3tHsd8QDWrn0WAsmq-16">
          <mxGeometry width="50" height="50" relative="1" as="geometry">
            <mxPoint x="666" y="480" as="sourcePoint" />
            <mxPoint x="620" y="390" as="targetPoint" />
          </mxGeometry>
        </mxCell>
        <mxCell id="Qrv3tHsd8QDWrn0WAsmq-39" value="t" style="text;html=1;align=center;verticalAlign=middle;whiteSpace=wrap;rounded=0;fontFamily=Fira Mono;textShadow=1;" vertex="1" parent="1">
          <mxGeometry x="622.5" y="480" width="87.5" height="10" as="geometry" />
        </mxCell>
      </root>
    </mxGraphModel>
  </diagram>
</mxfile>
